<svg id="图层_1" data-name="图层 1" xmlns="http://www.w3.org/2000/svg" viewBox="0 0 178.62 200"><defs><style>.cls-1{fill:#17489c;fill-rule:evenodd;}.cls-2{fill:#fc5ea8;}.cls-3{fill:#4a4268;}</style></defs><title>标志</title><path class="cls-1" d="M89.08,4.21A8.74,8.74,0,1,1,80.34,13a8.75,8.75,0,0,1,8.74-8.74Zm-58,42a8.74,8.74,0,1,1-8.74,8.74,8.75,8.75,0,0,1,8.74-8.74Zm22.71,68.32A8.74,8.74,0,1,1,45,123.26a8.75,8.75,0,0,1,8.73-8.74Zm70.61,0a8.74,8.74,0,1,1-8.73,8.74,8.76,8.76,0,0,1,8.73-8.74Zm-22.5-58.26H76.26L68.35,80.61,89.08,95.68l20.7-15-7.9-24.38ZM76.93,54.17l9-27.62a15,15,0,0,1-2-.62L74.76,54.17H45c0,.26,0,.52,0,.78,0,.43,0,.87-.06,1.3H74.08L66.59,79.33,43,62.19a13.45,13.45,0,0,1-1.2,1.68L61.84,78.44h0l4.07,3-1.26,3.9h0l-7.91,24.31a14.59,14.59,0,0,1,2,.59l9-27.52L87.32,97,64.08,113.85a14.59,14.59,0,0,1,1.28,1.63L89.08,98.24l23.72,17.23a13.2,13.2,0,0,1,1.28-1.62L90.84,97l19.62-14.25.84,2.61h0l8.1,24.89a14.59,14.59,0,0,1,2-.59l-9.17-28.2,4-2.93,20.11-14.6a13.24,13.24,0,0,1-1.21-1.68L115.65,76.38l-.55.4-3.56,2.58-7.49-23.1,29.14,0c0-.45-.06-.89-.06-1.34,0-.25,0-.5,0-.74H103.38L94.22,25.93a14.68,14.68,0,0,1-2,.62l9,27.63ZM42,46.32l35.38-25.7a14.28,14.28,0,0,0,1.26,1.64L43.2,48A16.7,16.7,0,0,0,42,46.32Zm6.38,64-13.63-42a13.31,13.31,0,0,0,2-.7l13.65,42a13,13,0,0,0-2,.65Zm62,13.46H67.72c0-.19,0-.37,0-.56a12.79,12.79,0,0,0-.08-1.52H110.5c0,.5-.08,1-.08,1.52,0,.19,0,.37,0,.56Zm32.94-55.43-13.64,42a14.52,14.52,0,0,0-2-.65l13.65-42a13.31,13.31,0,0,0,2,.7ZM100.74,20.62l35.38,25.7A14,14,0,0,0,135,48L99.47,22.26a14.36,14.36,0,0,0,1.27-1.64ZM147.09,46.2a8.74,8.74,0,1,1-8.73,8.74,8.76,8.76,0,0,1,8.73-8.74Z"/><path class="cls-2" d="M5.85,109.61v28.83S7.35,153.72,28,156.79H60.4s19.82-2.34,21.82-20.15V118.82H95.83v18s1.6,17.48,22.82,19.95h32s20-3.34,21.42-19.55V109.61Z"/><polygon class="cls-2" points="38.49 79.79 5.85 109.61 19.91 109.61 41.42 88.82 38.49 79.79"/><polygon class="cls-2" points="158.88 109.61 136.75 88.76 139.68 79.38 172.1 109.61 158.88 109.61"/><path class="cls-3" d="M151.06,195.63h-3c0-.65-.11-1.27-.11-1.9,0-3.66,0-7.33,0-11,0-1.38-.53-1.92-1.89-1.87-1.72.07-3.43.07-5.15,0-1.39-.05-1.87.53-1.85,1.9.06,3.6,0,7.21,0,10.81v2H136v-12c0-2.66,0-2.66-2.62-2.66-1.36,0-2.73.07-4.08,0-1.51-.1-2.11.41-2.07,2,.1,3.6,0,7.21,0,10.81,0,.64-.06,1.27-.1,2h-3V177.76h13c3.19,0,6.38,0,9.57,0,2.52,0,4.22,1.54,4.26,4C151.12,186.33,151.06,190.87,151.06,195.63Z"/><path class="cls-3" d="M42.3,182.09c-1.8,4.19-3.46,7.89-5,11.65-.53,1.32-1.06,2.37-2.72,1.95-.34-.09-.82-.3-.93-.58-2.28-5.68-4.51-11.37-6.77-17.1,3.12-.6,3.11-.6,4.2,2.06q1.84,4.5,3.7,9c0,.1.16.16.38.36a10.37,10.37,0,0,0,.68-1.11c1.32-3,2.68-6,3.92-9.1.44-1.08,1-1.63,2.21-1.48s2.21-.2,2.82,1.35c1.19,3,2.67,5.92,4,8.86.24.52.51,1,1,1.89,1.31-3.41,2.48-6.46,3.66-9.51,1-2.67,1-2.67,4.16-2.49a9.82,9.82,0,0,1-.31,1.27c-1.9,5.08-3.82,10.16-5.72,15.24-.3.81-.56,1.46-1.69,1.4a1.89,1.89,0,0,1-2-1.24C46.16,190.51,44.33,186.55,42.3,182.09Z"/><path class="cls-3" d="M6.79,185.19c4.56,0,8.87-.07,13.17,0,1.54,0,2.1-.38,2-2s-.24-2.46-2.12-2.4c-3.66.12-7.33,0-11,0h-2V177.8c5,0,9.85-.08,14.74,0a3.61,3.61,0,0,1,3.4,3.52c.11,4.71,0,9.43,0,14.35H13.48c-6,0-6.69-.7-6.69-6.75Zm9.29,3.1c-1.47,0-3,.1-4.42,0s-1.81.58-1.74,1.87-.17,2.55,1.8,2.48c2.47-.09,5,0,7.42,0,3,0,2.93,0,2.83-2.9,0-1.07-.42-1.46-1.47-1.41C19,188.34,17.55,188.29,16.08,188.29Z"/><path class="cls-3" d="M172.73,188.32H157.82c-.07.62-.16,1.13-.18,1.64-.06,2.5.06,2.63,2.51,2.63h12.49v3.12h-3.85c-3.37,0-6.74,0-10.11,0a3.92,3.92,0,0,1-4.17-3.92q-.13-5,0-10.1a3.9,3.9,0,0,1,4-3.9q5.13-.09,10.28,0a3.79,3.79,0,0,1,3.89,3.42C172.85,183.48,172.73,185.78,172.73,188.32Zm-9.23-3.14c1.6,0,3.19-.05,4.78,0,1.15.05,1.49-.52,1.35-1.5s.65-2.68-1.25-2.76c-3.12-.13-6.25-.09-9.38,0-1.94,0-1.22,1.63-1.35,2.68s.17,1.68,1.43,1.6C160.55,185.12,162,185.18,163.5,185.18Z"/><path class="cls-3" d="M77.24,192.59v3.08c-5,0-9.88.09-14.77,0A3.55,3.55,0,0,1,59.25,192q-.11-5.23,0-10.46A3.7,3.7,0,0,1,63,177.79q5.33-.12,10.64,0a3.72,3.72,0,0,1,3.7,3.76c.06,2.17,0,4.34,0,6.69H62.51c-.06.65-.14,1.16-.15,1.66,0,2.68,0,2.68,2.56,2.68H77.24Zm-3-7.48c0-1.05,0-1.92,0-2.79s-.39-1.42-1.34-1.42c-3.07,0-6.13-.05-9.19,0a1.69,1.69,0,0,0-1.27,1,17.16,17.16,0,0,0-.06,3.14Z"/><path class="cls-3" d="M98.83,182.26c-1.26-.17-2.59.67-3.35-1-.13-.27-.85-.36-1.3-.36-2.89,0-5.79,0-8.68,0-1.75,0-1.64,1.08-1.65,2.24s0,2.12,1.63,2.07c3-.09,6,0,9,0s4.38,1.53,4.42,4.35c0,.82,0,1.65,0,2.48a3.81,3.81,0,0,1-3.64,3.66c-3.6.08-7.21.08-10.81,0-2.31-.05-3.71-1.8-3.63-4.38,1.16.13,2.52-.81,3.34.91.13.27.84.37,1.28.37,2.89,0,5.79,0,8.68,0,1.71,0,1.69-1,1.71-2.2s-.12-2.19-1.77-2.15c-3,.08-6,0-9,0-2.74,0-4.26-1.51-4.36-4.25a18.66,18.66,0,0,1,0-2.48,3.94,3.94,0,0,1,4-3.77q5.13-.12,10.28,0C97.45,177.86,98.92,179.56,98.83,182.26Z"/><path class="cls-3" d="M111.29,195.71c-1.66,0-3.31,0-5,0a3.92,3.92,0,0,1-4-4c0-3.31,0-6.61,0-9.92a3.87,3.87,0,0,1,3.89-4c3.48-.08,7-.08,10.45,0a3.89,3.89,0,0,1,3.89,4q.13,5,0,9.92c-.07,2.46-1.75,3.95-4.27,4C114.59,195.73,112.94,195.71,111.29,195.71Zm.16-3.12c1.42,0,2.83,0,4.25,0,1.08,0,1.68-.35,1.67-1.51,0-2.89,0-5.78,0-8.67,0-1-.4-1.54-1.47-1.53-3,0-6,0-9,0-1,0-1.51.46-1.5,1.5q0,4.34,0,8.67c0,1.16.57,1.56,1.65,1.54C108.5,192.56,110,192.59,111.45,192.59Z"/></svg>